# xmcd
#
# Track frame offsets: 
#        150
#        13030
#        24622
#        35735
#        46615
#        58606
#        71378
#        82547
#        95655
#        105046
#        117846
#        135361
#        156841
#        172705
#
# Disc length: 2773 seconds
#
# Revision: 0
# Processed by: cddbd v1.5.2PL0 Copyright (c) Steve Scherf et al.
# Submitted via: ExactAudioCopyFreeDBPlugin 1.0
#
DISCID=970ad30e
DTITLE=Junior Wells - Sexy Bitch -2- Slippin' and Slidin'
DYEAR=2018
DGENRE=Blues
TTITLE0=One Day (Every Goodbye Ain't Gone)
TTITLE1=Galloping Horses A Lazy Mule
TTITLE2=Prison Bars All Around Me
TTITLE3=You Sure Look Good To Me
TTITLE4=It Hurts Me Too
TTITLE5=Better Cut That Out
TTITLE6=Please Throw This Dog A Bone
TTITLE7=Blues Hit Big Town
TTITLE8=Hoodoo Man Blues
TTITLE9=Snatxch It Back And Hold It
TTITLE10=Good Morning Little Schoolgirl
TTITLE11=I Just Want To Make Love To You
TTITLE12=Stop Breaking Down
TTITLE13=Trouble Don't Last
EXTD=
EXTT0=
EXTT1=
EXTT2=
EXTT3=
EXTT4=
EXTT5=
EXTT6=
EXTT7=
EXTT8=
EXTT9=
EXTT10=
EXTT11=
EXTT12=
EXTT13=
PLAYORDER=
